<svg xmlns="http://www.w3.org/2000/svg" xmlns:xlink="http://www.w3.org/1999/xlink" width="500" zoomAndPan="magnify" viewBox="0 0 375 374.999991" height="500" preserveAspectRatio="xMidYMid meet" version="1.2"><defs/><g id="4697fe2eca"><rect x="0" width="375" y="0" height="374.999991" style="fill:#ffffff;fill-opacity:1;stroke:none;"/><rect x="0" width="375" y="0" height="374.999991" style="fill:#ffffff;fill-opacity:1;stroke:none;"/><g style="fill:#002176;fill-opacity:1;"><g transform="translate(34.684454, 176.599997)"><path style="stroke:none" d="M 20.796875 -20.046875 C 19.566406 -15.273438 15.710938 -12.882812 9.234375 -12.875 L 7.890625 -0.6875 C 7.847656 -0.34375 7.664062 -0.164062 7.34375 -0.15625 L 2.84375 0.09375 C 2.519531 0.0625 2.359375 -0.078125 2.359375 -0.328125 L 6.078125 -32.828125 C 6.140625 -33.128906 6.328125 -33.296875 6.640625 -33.328125 C 9.316406 -33.566406 11.875 -33.6875 14.3125 -33.6875 C 19.15625 -33.6875 21.578125 -31.367188 21.578125 -26.734375 C 21.578125 -24.191406 21.316406 -21.960938 20.796875 -20.046875 Z M 11 -28.6875 L 9.78125 -17.828125 C 12.257812 -17.828125 13.925781 -18.34375 14.78125 -19.375 C 15.644531 -20.40625 16.078125 -22.410156 16.078125 -25.390625 C 16.078125 -26.535156 15.765625 -27.378906 15.140625 -27.921875 C 14.523438 -28.472656 13.738281 -28.75 12.78125 -28.75 C 11.820312 -28.75 11.226562 -28.726562 11 -28.6875 Z M 11 -28.6875 "/></g></g><g style="fill:#002176;fill-opacity:1;"><g transform="translate(56.659065, 176.599997)"><path style="stroke:none" d="M 20.640625 -0.515625 C 20.640625 -0.234375 20.445312 -0.09375 20.0625 -0.09375 L 15.234375 0.09375 C 15.015625 0.0703125 14.859375 -0.0664062 14.765625 -0.328125 L 9.375 -13.984375 L 7.859375 -0.609375 C 7.816406 -0.265625 7.640625 -0.0820312 7.328125 -0.0625 L 2.84375 0.09375 C 2.519531 0.0625 2.359375 -0.078125 2.359375 -0.328125 L 6.078125 -32.65625 C 6.109375 -32.914062 6.171875 -33.09375 6.265625 -33.1875 C 6.367188 -33.28125 7.128906 -33.382812 8.546875 -33.5 C 9.960938 -33.625 11.851562 -33.6875 14.21875 -33.6875 C 16.582031 -33.6875 18.40625 -33.054688 19.6875 -31.796875 C 20.96875 -30.546875 21.609375 -28.929688 21.609375 -26.953125 C 21.609375 -24.984375 21.375 -23.242188 20.90625 -21.734375 C 20.4375 -20.222656 19.65625 -18.863281 18.5625 -17.65625 C 17.476562 -16.457031 16.117188 -15.5625 14.484375 -14.96875 L 20.578125 -0.78125 C 20.617188 -0.6875 20.640625 -0.597656 20.640625 -0.515625 Z M 11.015625 -28.6875 L 9.8125 -18 C 12.46875 -18.15625 14.296875 -19.359375 15.296875 -21.609375 C 15.835938 -22.847656 16.109375 -24.097656 16.109375 -25.359375 C 16.109375 -26.628906 15.847656 -27.519531 15.328125 -28.03125 C 14.804688 -28.539062 14.050781 -28.796875 13.0625 -28.796875 C 12.070312 -28.796875 11.390625 -28.757812 11.015625 -28.6875 Z M 11.015625 -28.6875 "/></g></g><g style="fill:#002176;fill-opacity:1;"><g transform="translate(78.827002, 176.599997)"><path style="stroke:none" d="M 10.28125 0.328125 C 7.863281 0.328125 6.039062 -0.382812 4.8125 -1.8125 C 3.582031 -3.25 2.96875 -5.046875 2.96875 -7.203125 C 2.96875 -12.671875 3.519531 -18.078125 4.625 -23.421875 C 5.5 -27.617188 6.707031 -30.425781 8.25 -31.84375 C 9.707031 -33.15625 11.632812 -33.8125 14.03125 -33.8125 C 16.4375 -33.8125 18.257812 -33.085938 19.5 -31.640625 C 20.738281 -30.203125 21.359375 -28.425781 21.359375 -26.3125 C 21.359375 -24.195312 21.222656 -21.640625 20.953125 -18.640625 C 20.679688 -15.640625 20.34375 -13.128906 19.9375 -11.109375 C 19.539062 -9.097656 19.203125 -7.628906 18.921875 -6.703125 C 18.640625 -5.785156 18.253906 -4.851562 17.765625 -3.90625 C 17.273438 -2.96875 16.710938 -2.210938 16.078125 -1.640625 C 14.628906 -0.328125 12.695312 0.328125 10.28125 0.328125 Z M 10.828125 -4.75 C 12.648438 -4.75 13.816406 -6.425781 14.328125 -9.78125 C 14.671875 -12 15.015625 -14.757812 15.359375 -18.0625 C 15.703125 -21.375 15.875 -23.703125 15.875 -25.046875 C 15.875 -26.398438 15.65625 -27.351562 15.21875 -27.90625 C 14.78125 -28.46875 14.160156 -28.75 13.359375 -28.75 C 11.703125 -28.75 10.578125 -27.066406 9.984375 -23.703125 C 9.640625 -21.722656 9.296875 -19.039062 8.953125 -15.65625 C 8.609375 -12.269531 8.4375 -9.878906 8.4375 -8.484375 C 8.4375 -7.097656 8.660156 -6.128906 9.109375 -5.578125 C 9.566406 -5.023438 10.140625 -4.75 10.828125 -4.75 Z M 10.828125 -4.75 "/></g></g><g style="fill:#002176;fill-opacity:1;"><g transform="translate(101.317147, 176.599997)"><path style="stroke:none" d="M 8.765625 -33.0625 L 11.21875 -20.796875 L 15.625 -32.828125 C 15.738281 -33.140625 15.914062 -33.304688 16.15625 -33.328125 L 20.578125 -33.46875 C 20.753906 -33.457031 20.894531 -33.398438 21 -33.296875 C 21.101562 -33.203125 21.15625 -33.097656 21.15625 -32.984375 L 13.15625 -15.0625 L 11.5 -0.609375 C 11.457031 -0.265625 11.269531 -0.0820312 10.9375 -0.0625 L 6.515625 0.09375 C 6.191406 0.09375 6.03125 -0.046875 6.03125 -0.328125 L 7.65625 -14.59375 L 3.265625 -32.984375 C 3.265625 -33.179688 3.457031 -33.296875 3.84375 -33.328125 L 8.203125 -33.5 C 8.523438 -33.476562 8.710938 -33.332031 8.765625 -33.0625 Z M 8.765625 -33.0625 "/></g></g><g style="fill:#002176;fill-opacity:1;"><g transform="translate(120.585208, 176.599997)"><path style="stroke:none" d="M 16.078125 -14.703125 L 9.390625 -14.4375 L 8.375 -5.625 L 16.609375 -5.90625 C 16.984375 -5.894531 17.171875 -5.707031 17.171875 -5.34375 L 16.609375 -0.90625 C 16.578125 -0.601562 16.390625 -0.414062 16.046875 -0.34375 L 2.84375 0.09375 C 2.519531 0.09375 2.359375 -0.046875 2.359375 -0.328125 L 6.078125 -32.828125 C 6.140625 -33.128906 6.328125 -33.296875 6.640625 -33.328125 L 18.40625 -33.734375 C 18.769531 -33.691406 18.953125 -33.5 18.953125 -33.15625 L 18.40625 -28.703125 C 18.363281 -28.347656 18.179688 -28.15625 17.859375 -28.125 L 10.9375 -27.9375 L 10.015625 -19.9375 L 16.625 -20.171875 C 17 -20.160156 17.1875 -19.972656 17.1875 -19.609375 L 16.625 -15.234375 C 16.570312 -14.898438 16.390625 -14.722656 16.078125 -14.703125 Z M 16.078125 -14.703125 "/></g></g><g style="fill:#002176;fill-opacity:1;"><g transform="translate(140.025114, 176.599997)"><path style="stroke:none" d="M 16.171875 -0.96875 C 16.148438 -0.789062 16.101562 -0.664062 16.03125 -0.59375 C 15.957031 -0.53125 15.253906 -0.375 13.921875 -0.125 C 12.585938 0.113281 11.242188 0.234375 9.890625 0.234375 C 7.648438 0.234375 5.9375 -0.488281 4.75 -1.9375 C 3.5625 -3.382812 2.96875 -5.351562 2.96875 -7.84375 C 2.96875 -12.269531 3.5 -17.410156 4.5625 -23.265625 C 5.113281 -26.421875 5.800781 -28.632812 6.625 -29.90625 C 7.476562 -31.238281 8.507812 -32.171875 9.71875 -32.703125 C 11.21875 -33.359375 12.820312 -33.6875 14.53125 -33.6875 C 16.25 -33.6875 17.394531 -33.640625 17.96875 -33.546875 C 18.550781 -33.453125 18.878906 -33.398438 18.953125 -33.390625 C 19.140625 -33.328125 19.234375 -33.144531 19.234375 -32.84375 L 18.734375 -28.859375 C 18.679688 -28.484375 18.539062 -28.296875 18.3125 -28.296875 C 18.082031 -28.296875 17.550781 -28.351562 16.71875 -28.46875 C 15.882812 -28.59375 15.210938 -28.65625 14.703125 -28.65625 C 13.328125 -28.65625 12.28125 -28.304688 11.5625 -27.609375 C 10.84375 -26.921875 10.304688 -25.59375 9.953125 -23.625 C 9.609375 -21.65625 9.269531 -19.007812 8.9375 -15.6875 C 8.601562 -12.375 8.4375 -9.835938 8.4375 -8.078125 C 8.4375 -6.003906 9.351562 -4.96875 11.1875 -4.96875 C 11.71875 -4.96875 12.640625 -5.054688 13.953125 -5.234375 C 15.273438 -5.410156 16.03125 -5.5 16.21875 -5.5 C 16.519531 -5.5 16.671875 -5.320312 16.671875 -4.96875 Z M 16.171875 -0.96875 "/></g></g><g style="fill:#002176;fill-opacity:1;"><g transform="translate(158.799122, 176.599997)"><path style="stroke:none" d="M 4.390625 -33.234375 L 18.3125 -33.734375 C 18.632812 -33.710938 18.796875 -33.53125 18.796875 -33.1875 L 18.234375 -28.796875 C 18.210938 -28.578125 18.164062 -28.421875 18.09375 -28.328125 C 18.03125 -28.242188 17.898438 -28.195312 17.703125 -28.1875 L 13.53125 -28.03125 L 10.40625 -0.609375 C 10.351562 -0.265625 10.164062 -0.0820312 9.84375 -0.0625 L 5.375 0.09375 C 5.082031 0.09375 4.9375 -0.046875 4.9375 -0.328125 L 8.09375 -27.859375 L 3.828125 -27.734375 C 3.460938 -27.753906 3.28125 -27.921875 3.28125 -28.234375 L 3.828125 -32.703125 C 3.835938 -33.046875 4.023438 -33.222656 4.390625 -33.234375 Z M 4.390625 -33.234375 "/></g></g><g style="fill:#002176;fill-opacity:1;"><g transform="translate(175.811725, 176.599997)"><path style="stroke:none" d="M 10.28125 0.328125 C 7.863281 0.328125 6.039062 -0.382812 4.8125 -1.8125 C 3.582031 -3.25 2.96875 -5.046875 2.96875 -7.203125 C 2.96875 -12.671875 3.519531 -18.078125 4.625 -23.421875 C 5.5 -27.617188 6.707031 -30.425781 8.25 -31.84375 C 9.707031 -33.15625 11.632812 -33.8125 14.03125 -33.8125 C 16.4375 -33.8125 18.257812 -33.085938 19.5 -31.640625 C 20.738281 -30.203125 21.359375 -28.425781 21.359375 -26.3125 C 21.359375 -24.195312 21.222656 -21.640625 20.953125 -18.640625 C 20.679688 -15.640625 20.34375 -13.128906 19.9375 -11.109375 C 19.539062 -9.097656 19.203125 -7.628906 18.921875 -6.703125 C 18.640625 -5.785156 18.253906 -4.851562 17.765625 -3.90625 C 17.273438 -2.96875 16.710938 -2.210938 16.078125 -1.640625 C 14.628906 -0.328125 12.695312 0.328125 10.28125 0.328125 Z M 10.828125 -4.75 C 12.648438 -4.75 13.816406 -6.425781 14.328125 -9.78125 C 14.671875 -12 15.015625 -14.757812 15.359375 -18.0625 C 15.703125 -21.375 15.875 -23.703125 15.875 -25.046875 C 15.875 -26.398438 15.65625 -27.351562 15.21875 -27.90625 C 14.78125 -28.46875 14.160156 -28.75 13.359375 -28.75 C 11.703125 -28.75 10.578125 -27.066406 9.984375 -23.703125 C 9.640625 -21.722656 9.296875 -19.039062 8.953125 -15.65625 C 8.609375 -12.269531 8.4375 -9.878906 8.4375 -8.484375 C 8.4375 -7.097656 8.660156 -6.128906 9.109375 -5.578125 C 9.566406 -5.023438 10.140625 -4.75 10.828125 -4.75 Z M 10.828125 -4.75 "/></g></g><g style="fill:#002176;fill-opacity:1;"><g transform="translate(198.30187, 176.599997)"><path style="stroke:none" d=""/></g></g><g style="fill:#002176;fill-opacity:1;"><g transform="translate(207.323705, 176.599997)"><path style="stroke:none" d="M 1.890625 0.328125 C 1.535156 0.328125 1.359375 0.15625 1.359375 -0.1875 L 1.890625 -4.6875 C 1.953125 -5 2.140625 -5.171875 2.453125 -5.203125 C 4.679688 -5.429688 6.15625 -5.785156 6.875 -6.265625 C 7.59375 -6.742188 7.953125 -7.695312 7.953125 -9.125 C 7.953125 -10.5625 7.585938 -12.425781 6.859375 -14.71875 C 6.128906 -17.019531 5.65625 -18.550781 5.4375 -19.3125 C 4.75 -21.75 4.40625 -23.742188 4.40625 -25.296875 C 4.40625 -26.847656 4.65625 -28.175781 5.15625 -29.28125 C 5.65625 -30.382812 6.375 -31.265625 7.3125 -31.921875 C 9.113281 -33.179688 11.539062 -33.8125 14.59375 -33.8125 C 14.976562 -33.8125 15.171875 -33.632812 15.171875 -33.28125 L 14.59375 -28.828125 C 14.53125 -28.472656 14.347656 -28.28125 14.046875 -28.25 C 11.273438 -28.0625 9.890625 -27.238281 9.890625 -25.78125 C 9.890625 -24.4375 10.476562 -21.789062 11.65625 -17.84375 C 12.832031 -13.894531 13.421875 -11.070312 13.421875 -9.375 C 13.421875 -2.90625 9.578125 0.328125 1.890625 0.328125 Z M 1.890625 0.328125 "/></g></g><g style="fill:#002176;fill-opacity:1;"><g transform="translate(222.660824, 176.599997)"><path style="stroke:none" d="M 22.34375 -32.984375 L 18.671875 -0.609375 C 18.609375 -0.273438 18.429688 -0.09375 18.140625 -0.0625 L 13.703125 0.09375 C 13.390625 0.09375 13.234375 -0.046875 13.234375 -0.328125 L 14.828125 -14.4375 L 9.375 -14.25 L 7.828125 -0.609375 C 7.773438 -0.265625 7.585938 -0.0820312 7.265625 -0.0625 L 2.84375 0.09375 C 2.519531 0.09375 2.359375 -0.046875 2.359375 -0.328125 L 6.0625 -32.828125 C 6.113281 -33.128906 6.300781 -33.296875 6.625 -33.328125 L 10.9375 -33.5 C 11.3125 -33.476562 11.5 -33.304688 11.5 -32.984375 L 9.921875 -19.296875 L 15.40625 -19.484375 L 16.90625 -32.828125 C 16.945312 -33.140625 17.140625 -33.304688 17.484375 -33.328125 L 21.78125 -33.5 C 22.15625 -33.476562 22.34375 -33.304688 22.34375 -32.984375 Z M 22.34375 -32.984375 "/></g></g><g style="fill:#002176;fill-opacity:1;"><g transform="translate(245.473166, 176.599997)"><path style="stroke:none" d="M 10.28125 0.328125 C 7.863281 0.328125 6.039062 -0.382812 4.8125 -1.8125 C 3.582031 -3.25 2.96875 -5.046875 2.96875 -7.203125 C 2.96875 -12.671875 3.519531 -18.078125 4.625 -23.421875 C 5.5 -27.617188 6.707031 -30.425781 8.25 -31.84375 C 9.707031 -33.15625 11.632812 -33.8125 14.03125 -33.8125 C 16.4375 -33.8125 18.257812 -33.085938 19.5 -31.640625 C 20.738281 -30.203125 21.359375 -28.425781 21.359375 -26.3125 C 21.359375 -24.195312 21.222656 -21.640625 20.953125 -18.640625 C 20.679688 -15.640625 20.34375 -13.128906 19.9375 -11.109375 C 19.539062 -9.097656 19.203125 -7.628906 18.921875 -6.703125 C 18.640625 -5.785156 18.253906 -4.851562 17.765625 -3.90625 C 17.273438 -2.96875 16.710938 -2.210938 16.078125 -1.640625 C 14.628906 -0.328125 12.695312 0.328125 10.28125 0.328125 Z M 10.828125 -4.75 C 12.648438 -4.75 13.816406 -6.425781 14.328125 -9.78125 C 14.671875 -12 15.015625 -14.757812 15.359375 -18.0625 C 15.703125 -21.375 15.875 -23.703125 15.875 -25.046875 C 15.875 -26.398438 15.65625 -27.351562 15.21875 -27.90625 C 14.78125 -28.46875 14.160156 -28.75 13.359375 -28.75 C 11.703125 -28.75 10.578125 -27.066406 9.984375 -23.703125 C 9.640625 -21.722656 9.296875 -19.039062 8.953125 -15.65625 C 8.609375 -12.269531 8.4375 -9.878906 8.4375 -8.484375 C 8.4375 -7.097656 8.660156 -6.128906 9.109375 -5.578125 C 9.566406 -5.023438 10.140625 -4.75 10.828125 -4.75 Z M 10.828125 -4.75 "/></g></g><g style="fill:#002176;fill-opacity:1;"><g transform="translate(267.963322, 176.599997)"><path style="stroke:none" d="M 20.796875 -20.046875 C 19.566406 -15.273438 15.710938 -12.882812 9.234375 -12.875 L 7.890625 -0.6875 C 7.847656 -0.34375 7.664062 -0.164062 7.34375 -0.15625 L 2.84375 0.09375 C 2.519531 0.0625 2.359375 -0.078125 2.359375 -0.328125 L 6.078125 -32.828125 C 6.140625 -33.128906 6.328125 -33.296875 6.640625 -33.328125 C 9.316406 -33.566406 11.875 -33.6875 14.3125 -33.6875 C 19.15625 -33.6875 21.578125 -31.367188 21.578125 -26.734375 C 21.578125 -24.191406 21.316406 -21.960938 20.796875 -20.046875 Z M 11 -28.6875 L 9.78125 -17.828125 C 12.257812 -17.828125 13.925781 -18.34375 14.78125 -19.375 C 15.644531 -20.40625 16.078125 -22.410156 16.078125 -25.390625 C 16.078125 -26.535156 15.765625 -27.378906 15.140625 -27.921875 C 14.523438 -28.472656 13.738281 -28.75 12.78125 -28.75 C 11.820312 -28.75 11.226562 -28.726562 11 -28.6875 Z M 11 -28.6875 "/></g></g><g style="fill:#002176;fill-opacity:1;"><g transform="translate(289.937946, 176.599997)"><path style="stroke:none" d="M 11.5 -32.953125 L 7.828125 -0.609375 C 7.773438 -0.265625 7.585938 -0.0820312 7.265625 -0.0625 L 2.84375 0.09375 C 2.519531 0.09375 2.359375 -0.046875 2.359375 -0.328125 L 6.078125 -32.828125 C 6.140625 -33.128906 6.328125 -33.296875 6.640625 -33.328125 L 10.9375 -33.46875 C 11.3125 -33.457031 11.5 -33.285156 11.5 -32.953125 Z M 11.5 -32.953125 "/></g></g><g style="fill:#002176;fill-opacity:1;"><g transform="translate(301.902605, 176.599997)"><path style="stroke:none" d="M 16.25 -14.484375 L 9.375 -14.25 L 7.828125 -0.6875 C 7.765625 -0.351562 7.578125 -0.175781 7.265625 -0.15625 L 2.84375 0.09375 C 2.519531 0.09375 2.359375 -0.046875 2.359375 -0.328125 L 6.109375 -32.828125 C 6.160156 -33.128906 6.34375 -33.296875 6.65625 -33.328125 L 18.4375 -33.8125 C 18.789062 -33.769531 18.96875 -33.578125 18.96875 -33.234375 L 18.4375 -28.796875 C 18.394531 -28.421875 18.207031 -28.222656 17.875 -28.203125 L 10.953125 -27.96875 L 10.015625 -19.71875 L 16.796875 -19.953125 C 17.171875 -19.941406 17.359375 -19.757812 17.359375 -19.40625 L 16.796875 -15.015625 C 16.742188 -14.691406 16.5625 -14.515625 16.25 -14.484375 Z M 16.25 -14.484375 "/></g></g><g style="fill:#002176;fill-opacity:1;"><g transform="translate(321.020303, 176.599997)"><path style="stroke:none" d="M 8.765625 -33.0625 L 11.21875 -20.796875 L 15.625 -32.828125 C 15.738281 -33.140625 15.914062 -33.304688 16.15625 -33.328125 L 20.578125 -33.46875 C 20.753906 -33.457031 20.894531 -33.398438 21 -33.296875 C 21.101562 -33.203125 21.15625 -33.097656 21.15625 -32.984375 L 13.15625 -15.0625 L 11.5 -0.609375 C 11.457031 -0.265625 11.269531 -0.0820312 10.9375 -0.0625 L 6.515625 0.09375 C 6.191406 0.09375 6.03125 -0.046875 6.03125 -0.328125 L 7.65625 -14.59375 L 3.265625 -32.984375 C 3.265625 -33.179688 3.457031 -33.296875 3.84375 -33.328125 L 8.203125 -33.5 C 8.523438 -33.476562 8.710938 -33.332031 8.765625 -33.0625 Z M 8.765625 -33.0625 "/></g></g></g></svg>